<svg width="110" height="40" viewBox="0 0 110 40" fill="none" xmlns="http://www.w3.org/2000/svg">
<path d="M25.9427 16.1757C25.6974 21.7826 20.9305 26.1443 15.315 25.8999C9.69954 25.6555 5.32997 20.896 5.577 15.2891C5.82224 9.68581 10.5892 5.32412 16.2047 5.56851C21.8183 5.81113 26.1879 10.5724 25.9427 16.1757ZM26.4815 27.245C29.4101 24.528 31.3165 20.7122 31.5027 16.4183C31.8822 7.75382 25.1282 0.393354 16.4463 0.015162C7.76447 -0.36303 0.392947 6.3802 0.0152412 15.0465C-0.364255 23.7146 6.3897 31.0733 15.0716 31.4514C17.6439 31.5638 20.0963 31.0358 22.2909 30.035L23.7874 31.8956C23.7874 31.8956 23.9342 31.8635 23.0929 32.5664C22.3948 33.1497 23.007 33.7884 23.007 33.7884C23.007 33.7884 23.9772 35.1014 25.3466 36.9477H35.3495L29.6822 28.7203C29.6822 28.7203 29.2812 28.0513 28.6027 28.4669C28.2716 28.6703 27.6683 29.0414 27.6683 29.0414L26.4815 27.245Z" fill="#3498DB"/>
<path d="M22.6542 14.3722V17.0927C22.6542 17.9721 21.9382 18.6857 21.0557 18.6857H18.8038V21.0298C18.8038 21.9092 18.0878 22.6246 17.2053 22.6246H14.4843C13.6018 22.6246 12.8876 21.911 12.8876 21.0298V18.6857H10.4441C9.56164 18.6857 8.84561 17.9721 8.84561 17.0927V14.3722C8.84561 13.4909 9.56164 12.7773 10.4441 12.7773H12.8858V10.4333C12.8858 9.55379 13.6 8.83844 14.4826 8.83844H17.2035C18.086 8.83844 18.802 9.55379 18.802 10.4333V12.7773H21.0539C21.9382 12.7773 22.6542 13.4909 22.6542 14.3722Z" fill="#E8214C"/>
<path d="M109.676 5.98236C109.193 5.98236 108.692 6.05193 108.173 6.19108C107.652 6.33023 107.156 6.50505 106.683 6.71912C106.211 6.93141 105.769 7.16867 105.36 7.42734C104.952 7.68601 104.626 7.93754 104.387 8.17659H104.358L104.106 6.14827H100.268V19.9291H104.387V11.7337C105.128 11.2717 105.899 10.9185 106.696 10.6776C107.494 10.4368 108.486 10.2602 109.674 10.1496V5.98236H109.676ZM95.2035 14.456C95.2035 15.1785 94.9816 15.6887 94.5394 15.9848C94.0973 16.281 93.6283 16.429 93.1306 16.429C92.6133 16.429 92.1353 16.281 91.6914 15.9848C91.2493 15.6887 91.0273 15.1803 91.0273 14.456V11.5678C91.0273 10.8453 91.2493 10.3369 91.6914 10.039C92.1336 9.74466 92.6133 9.59481 93.1306 9.59481C93.6283 9.59481 94.0973 9.74466 94.5394 10.039C94.9816 10.3351 95.2035 10.8453 95.2035 11.5678V14.456ZM99.3243 11.3734C99.3243 9.61443 98.7694 8.27114 97.6631 7.34528C96.5568 6.41942 95.046 5.95739 93.1306 5.95739C92.275 5.95739 91.4694 6.07334 90.7176 6.30525C89.964 6.53716 89.3052 6.87432 88.736 7.3203C88.1703 7.7645 87.7228 8.32108 87.397 8.98649C87.073 9.65368 86.9101 10.4225 86.9101 11.2931V14.7379C86.9101 16.4986 87.4633 17.8276 88.5695 18.7249C89.6758 19.624 91.1956 20.0736 93.1306 20.0736C94.04 20.0736 94.8777 19.9576 95.6403 19.7257C96.4029 19.4938 97.0581 19.1566 97.6058 18.7124C98.1554 18.2682 98.5778 17.7117 98.875 17.0463C99.1721 16.3791 99.3225 15.6102 99.3225 14.7396V11.3734H99.3243ZM78.5021 9.37182V15.455C78.5021 16.1418 78.5612 16.7662 78.6829 17.3299C78.8047 17.8954 79.0302 18.3824 79.365 18.7891C79.6997 19.1977 80.1669 19.5152 80.7702 19.7471C81.3734 19.979 82.1664 20.095 83.1492 20.095C83.6683 20.095 84.2483 20.0629 84.8891 19.9986C85.53 19.9344 86.1547 19.7899 86.7669 19.5687L86.434 16.2631C85.6732 16.3184 85.0323 16.347 84.5132 16.347C83.8079 16.347 83.3067 16.2399 83.0096 16.0276C82.7124 15.8153 82.5638 15.3747 82.5638 14.7075V9.3736H85.6535V6.15005H82.5638V2.67675H79.2235L78.5827 6.14827H76.8857V9.37182H78.5021ZM74.0216 15.0679C73.5383 15.5495 73.0424 15.8742 72.5323 16.0401C72.0221 16.2078 71.5996 16.2899 71.2667 16.2899C70.7654 16.2899 70.3108 16.1418 69.9026 15.8457C69.4945 15.5495 69.2904 15.0393 69.2904 14.3186V11.6784C69.2904 10.9738 69.5088 10.4689 69.9438 10.1639C70.3806 9.85883 70.8496 9.70541 71.349 9.70541C71.6462 9.70541 72.0078 9.76071 72.4338 9.8731C72.8598 9.9837 73.3986 10.3262 74.0484 10.9006L76.3863 7.92862C75.9406 7.48443 75.4912 7.12764 75.0366 6.85827C74.5819 6.59068 74.1218 6.39088 73.66 6.26065C73.1964 6.13221 72.7363 6.04837 72.2816 6.01091C71.827 5.97344 71.3777 5.9556 70.9319 5.9556C70.2642 5.9556 69.5894 6.05193 68.9091 6.24817C68.2289 6.44261 67.6078 6.74766 67.0475 7.1651C66.4872 7.58254 66.0343 8.10523 65.6888 8.73496C65.3433 9.36468 65.1697 10.105 65.1697 10.9559V15.0679C65.1697 15.9384 65.3326 16.6895 65.6602 17.3192C65.9877 17.9489 66.4174 18.468 66.949 18.8748C67.4807 19.2815 68.0929 19.583 68.782 19.7774C69.473 19.9719 70.1873 20.07 70.9301 20.07C71.3759 20.07 71.8305 20.0468 72.2942 20.0004C72.7578 19.954 73.2214 19.8524 73.6851 19.6954C74.1487 19.5384 74.6123 19.3154 75.0759 19.0282C75.5396 18.741 76.0032 18.3574 76.4668 17.8758L74.0216 15.0679ZM60.1789 14.456C60.1789 15.1785 59.9588 15.6887 59.5148 15.9848C59.0727 16.281 58.6037 16.429 58.106 16.429C57.5905 16.429 57.1108 16.281 56.6686 15.9848C56.2247 15.6887 56.0045 15.1803 56.0045 14.456V11.5678C56.0045 10.8453 56.2247 10.3369 56.6686 10.039C57.1108 9.74466 57.5887 9.59481 58.106 9.59481C58.6037 9.59481 59.0727 9.74466 59.5148 10.039C59.957 10.3351 60.1789 10.8453 60.1789 11.5678V14.456ZM64.2979 11.3734C64.2979 9.61443 63.7448 8.27114 62.6385 7.34528C61.5322 6.41942 60.0196 5.95739 58.106 5.95739C57.2504 5.95739 56.4466 6.07334 55.693 6.30525C54.9394 6.53716 54.2807 6.87432 53.7132 7.3203C53.1457 7.7645 52.6982 8.32108 52.3742 8.98649C52.0484 9.65368 51.8855 10.4225 51.8855 11.2931V14.7379C51.8855 16.4986 52.4387 17.8276 53.5449 18.7249C54.6512 19.624 56.171 20.0736 58.106 20.0736C59.0172 20.0736 59.8532 19.9576 60.6157 19.7257C61.3783 19.4938 62.0335 19.1566 62.583 18.7124C63.1308 18.2682 63.555 17.7117 63.8522 17.0463C64.1493 16.3791 64.2997 15.6102 64.2997 14.7396V11.3734H64.2979ZM42.6183 11.616C42.6183 10.9702 42.7776 10.5189 43.0945 10.2602C43.4131 10.0015 43.8051 9.8731 44.2724 9.8731C44.6447 9.8731 45.0278 9.92305 45.4216 10.0247C45.8136 10.1264 46.2719 10.3066 46.7946 10.5635V15.3212C46.3828 15.5799 45.9121 15.8046 45.3804 15.9991C44.8488 16.1918 44.3941 16.2899 44.0217 16.2899C43.6476 16.2899 43.32 16.1757 43.0408 15.9456C42.7615 15.7154 42.6219 15.2677 42.6219 14.6041V11.616H42.6183ZM38.4994 14.984C38.4994 18.3735 40.0478 20.0682 43.1464 20.0682C43.6279 20.0682 44.2186 19.9469 44.915 19.7079C45.6095 19.467 46.2737 19.1424 46.9055 18.7356L47.183 19.9309H50.9117V0.0383301H46.7928V6.73875C46.254 6.40337 45.6561 6.1893 44.9973 6.09475C44.3386 6.00198 43.7765 5.9556 43.3147 5.9556C42.4984 5.9556 41.7877 6.07513 41.1863 6.31774C40.583 6.55857 40.0818 6.90108 39.6826 7.34528C39.2834 7.78948 38.9863 8.3193 38.7929 8.9294C38.5978 9.5395 38.4994 10.2156 38.4994 10.9559V14.984Z" fill="#207AB6"/>
<path d="M45.6768 36.8175L45.4262 35.0853H45.3456C44.7961 35.7899 44.2322 36.2876 43.654 36.5802C43.074 36.8728 42.3902 37.0173 41.6008 37.0173C40.5303 37.0173 39.6962 36.7425 39.1001 36.1913C38.504 35.6419 38.2068 34.8801 38.2068 33.9061C38.2068 32.8393 38.6508 32.0098 39.5368 31.4193C40.4229 30.8288 41.7064 30.5167 43.3873 30.4828L45.4656 30.4221V29.6978C45.4656 28.6578 45.2543 27.8729 44.8337 27.3431C44.4112 26.8132 43.7328 26.5474 42.7948 26.5474C41.7834 26.5474 40.7362 26.8293 39.6514 27.393L39.2809 26.5278C40.4784 25.9641 41.6634 25.6822 42.8359 25.6822C44.0335 25.6822 44.9303 25.9944 45.5229 26.6188C46.1154 27.2432 46.4107 28.2154 46.4107 29.5373V36.8157H45.6768V36.8175ZM41.6599 36.1128C42.8252 36.1128 43.7435 35.7792 44.4166 35.112C45.0897 34.4449 45.4262 33.5172 45.4262 32.3291V31.2516L43.518 31.3319C41.9857 31.405 40.8919 31.6459 40.2386 32.0508C39.5852 32.4576 39.2594 33.0891 39.2594 33.9489C39.2594 34.6339 39.4688 35.1656 39.8877 35.5437C40.3066 35.9237 40.8973 36.1128 41.6599 36.1128Z" fill="#3498DB"/>
<path d="M57.5556 36.8175V29.721C57.5556 28.6203 57.3247 27.8194 56.8629 27.3199C56.401 26.8204 55.685 26.5706 54.713 26.5706C53.4081 26.5706 52.4522 26.9006 51.8453 27.5625C51.2403 28.2243 50.9378 29.2964 50.9378 30.7789V36.8193H49.9443V25.8767H50.7874L50.9789 27.3769H51.0398C51.7487 26.2352 53.0107 25.6662 54.8258 25.6662C57.3032 25.6662 58.5402 26.9988 58.5402 29.6622V36.8193H57.5556V36.8175Z" fill="#3498DB"/>
<path d="M63.8872 38.2517C63.6097 38.9867 63.3645 39.5237 63.155 39.8626C63.1246 39.9108 63.096 39.9554 63.0637 40H64.1969C64.3777 39.6325 64.5764 39.1651 64.7965 38.5907L69.687 25.8767H68.6631L66.3539 31.9563C65.7184 33.6742 65.2602 34.9657 64.9791 35.831H64.9183C64.7303 35.1727 64.2864 33.9025 63.5829 32.0151L61.2737 25.8749H60.2498L64.426 36.8175C64.3436 37.0387 64.1646 37.5168 63.8872 38.2517Z" fill="#3498DB"/>
<path d="M74.395 36.1342C75.0251 36.1342 75.5728 36.0807 76.0418 35.9737V36.7782C75.5603 36.9388 75.0036 37.019 74.3753 37.019C73.4104 37.019 72.6998 36.7604 72.2415 36.2448C71.7832 35.7275 71.5541 34.9158 71.5541 33.808V26.7419H69.9377V26.1585L71.5541 25.7054L72.0553 23.2293H72.5673V25.8767H75.7697V26.7419H72.5673V33.667C72.5673 34.5055 72.7141 35.1263 73.0095 35.5295C73.303 35.9326 73.7649 36.1342 74.395 36.1342Z" fill="#3498DB"/>
<path d="M78.2597 22.8351C78.2597 22.1911 78.471 21.8682 78.8916 21.8682C79.0993 21.8682 79.2622 21.952 79.3785 22.1197C79.4949 22.2874 79.5539 22.5265 79.5539 22.8351C79.5539 23.1366 79.4949 23.3756 79.3785 23.5504C79.2604 23.7253 79.0993 23.8127 78.8916 23.8127C78.471 23.8127 78.2597 23.4862 78.2597 22.8351ZM79.3946 36.8175H78.4011V25.8749H79.3946V36.8175Z" fill="#3498DB"/>
<path d="M96.6868 36.8174V29.6407C96.6868 28.5739 96.4791 27.7962 96.0638 27.3056C95.6485 26.815 95.0131 26.5706 94.1556 26.5706C93.0368 26.5706 92.2116 26.8792 91.6746 27.4965C91.1393 28.1137 90.8708 29.0841 90.8708 30.406V36.8192H89.8559V29.3392C89.8559 27.4947 89.0127 26.5706 87.3265 26.5706C86.1808 26.5706 85.3484 26.9042 84.8257 27.5714C84.303 28.2386 84.0435 29.3089 84.0435 30.7771V36.8174H83.05V25.8749H83.8734L84.0847 27.3752H84.1455C84.4462 26.8311 84.8759 26.41 85.4308 26.1121C85.9857 25.8142 86.5997 25.6644 87.2674 25.6644C88.9877 25.6644 90.0921 26.3119 90.5808 27.6071H90.6202C90.9746 26.9827 91.4526 26.5028 92.0505 26.1674C92.6484 25.8321 93.3304 25.6644 94.093 25.6644C95.2851 25.6644 96.1784 25.9837 96.7745 26.6205C97.3706 27.2574 97.6677 28.2707 97.6677 29.6604V36.8174H96.6868Z" fill="#3498DB"/>
<path d="M105.612 37.019C104.026 37.019 102.789 36.5285 101.901 35.5491C101.013 34.5697 100.571 33.1979 100.571 31.4318C100.571 29.6871 100.999 28.2903 101.856 27.2396C102.714 26.1888 103.869 25.6644 105.32 25.6644C106.606 25.6644 107.621 26.1139 108.363 27.013C109.106 27.9121 109.479 29.1341 109.479 30.6772V31.4817H101.617C101.629 32.9856 101.98 34.1327 102.666 34.9247C103.351 35.7168 104.334 36.1128 105.612 36.1128C106.235 36.1128 106.781 36.07 107.254 35.9826C107.726 35.8952 108.322 35.7079 109.045 35.4189V36.3251C108.43 36.5927 107.86 36.7764 107.338 36.8728C106.817 36.9709 106.242 37.019 105.612 37.019ZM105.32 26.551C104.269 26.551 103.426 26.8988 102.789 27.5928C102.154 28.2867 101.781 29.2893 101.674 30.5969H108.422C108.422 29.3285 108.149 28.3367 107.599 27.6231C107.051 26.9078 106.292 26.551 105.32 26.551Z" fill="#3498DB"/>
</svg>
